<?xml version="1.0" encoding="UTF-8" standalone="no"?>
<!-- Created with Inkscape (http://www.inkscape.org/) -->

<svg
   xmlns:dc="http://purl.org/dc/elements/1.1/"
   xmlns:cc="http://creativecommons.org/ns#"
   xmlns:rdf="http://www.w3.org/1999/02/22-rdf-syntax-ns#"
   xmlns:svg="http://www.w3.org/2000/svg"
   xmlns="http://www.w3.org/2000/svg"
   xmlns:sodipodi="http://sodipodi.sourceforge.net/DTD/sodipodi-0.dtd"
   xmlns:inkscape="http://www.inkscape.org/namespaces/inkscape"
   width="744.09448819"
   height="1052.3622047"
   id="svg2"
   version="1.1"
   inkscape:version="0.48.2 r9819"
   sodipodi:docname="fx.svg">
  <defs
     id="defs4" />
  <sodipodi:namedview
     id="base"
     pagecolor="#ffffff"
     bordercolor="#666666"
     borderopacity="1.0"
     inkscape:pageopacity="0.0"
     inkscape:pageshadow="2"
     inkscape:zoom="0.7"
     inkscape:cx="575.87137"
     inkscape:cy="571.75825"
     inkscape:document-units="px"
     inkscape:current-layer="layer1"
     showgrid="false"
     inkscape:window-width="1248"
     inkscape:window-height="770"
     inkscape:window-x="0"
     inkscape:window-y="0"
     inkscape:window-maximized="0" />
  <metadata
     id="metadata7">
    <rdf:RDF>
      <cc:Work
         rdf:about="">
        <dc:format>image/svg+xml</dc:format>
        <dc:type
           rdf:resource="http://purl.org/dc/dcmitype/StillImage" />
        <dc:title></dc:title>
      </cc:Work>
    </rdf:RDF>
  </metadata>
  <g
     inkscape:label="Layer 1"
     inkscape:groupmode="layer"
     id="layer1">
    <path
       transform="translate(80,-34.285714)"
       style="fill:#ffe680;fill-opacity:1;stroke:none"
       inkscape:transform-center-x="-2.1718069"
       inkscape:transform-center-y="0.47192591"
       d="m 242.85714,292.36218 -47.71593,-7.51638 18.16963,55.52842 -61.58929,-68.37676 -53.111875,39.57803 13.477575,-67.07443 -63.312902,-23.67738 32.133384,-16.81213 -45.430447,-49.46164 74.826545,25.59131 -8.13497,-119.792059 36.55208,90.890949 15.16812,-63.08896 3.7013,61.25797 52.0911,-55.516309 -27.06013,75.554619 129.48261,-81.7462 -51.81577,70.53458 45.721,5.09602 -97.64879,35.70593 71.61489,48.12037 -86.28952,0.24433 z"
       id="path2985"
       inkscape:connector-curvature="0"
       sodipodi:nodetypes="ccccccccccccccccccccccc"
       inkscape:export-filename="/Users/nantas/projects/BOW/PSD/fxhit.png"
       inkscape:export-xdpi="43.060001"
       inkscape:export-ydpi="43.060001" />
    <path
       transform="translate(72.857143,-138.57143)"
       style="fill:#ff9955;fill-opacity:1;stroke:#ffe6d5;stroke-width:8;stroke-miterlimit:4"
       inkscape:transform-center-x="2.0512181"
       inkscape:transform-center-y="0.5489299"
       d="M 181.42858,395.21932 134.68647,374.19141 113.9018,406.13 117.12864,358.74387 61.902212,390.03348 103.2214,345.60449 54.046721,342.66621 100.7173,324.932 57.838296,279.53407 l 55.138454,28.01873 -5.30123,-59.28914 23.91411,41.72323 45.79222,-73.64301 -19.92848,87.33354 82.23511,-33.68351 -71.22244,60.79596 90.52766,52.28525 -89.51901,-24.4371 z"
       id="path3007"
       inkscape:connector-curvature="0"
       sodipodi:nodetypes="ccccccccccccccccccc"
       inkscape:export-filename="/Users/nantas/projects/BOW/PSD/fxhit.png"
       inkscape:export-xdpi="43.060001"
       inkscape:export-ydpi="43.060001" />
    <path
       sodipodi:nodetypes="ccccccccccccccccccccccc"
       inkscape:connector-curvature="0"
       id="path3778"
       d="m 352.85714,605.21932 -87.71593,-11.80209 18.16963,55.52842 -58.73215,-56.94819 -55.96902,28.14946 13.47758,-67.07443 -60.45576,-17.96309 54.99053,-16.81213 -44.00188,-46.6045 47.68369,17.01988 0.43646,-85.50635 27.98065,56.60524 15.16812,-63.08896 3.7013,61.25797 74.94824,-99.80202 -35.63156,105.55462 150.91119,-96.03192 -87.53006,99.10601 90.00671,-0.61827 -129.07736,54.27736 115.90061,45.26323 -143.43238,-9.75567 z"
       inkscape:transform-center-y="0.47192591"
       inkscape:transform-center-x="-2.1718069"
       style="fill:#ffe680;fill-opacity:1;stroke:none"
       inkscape:export-filename="/Users/nantas/projects/BOW/PSD/fxhit.png"
       inkscape:export-xdpi="43.060001"
       inkscape:export-ydpi="43.060001" />
    <path
       sodipodi:nodetypes="ccccccccccccccccccc"
       inkscape:connector-curvature="0"
       id="path3780"
       d="m 244.28572,599.50503 -45.31354,-32.45648 -22.21324,43.36716 3.22684,-47.38613 -55.22643,31.28961 47.03348,-44.42899 -34.88897,-5.79542 35.24201,-14.87707 -28.59329,-25.39793 32.28131,8.01873 -5.30123,-59.28914 28.19982,57.43752 41.50651,-89.3573 -19.92848,94.4764 57.9494,-29.3978 -46.93673,49.36739 61.95623,35.14239 -75.23329,-15.86567 z"
       inkscape:transform-center-y="0.5489299"
       inkscape:transform-center-x="2.0512181"
       style="fill:#ff9955;fill-opacity:1;stroke:#ffe6d5;stroke-width:8;stroke-miterlimit:4"
       inkscape:export-filename="/Users/nantas/projects/BOW/PSD/fxhit.png"
       inkscape:export-xdpi="43.060001"
       inkscape:export-ydpi="43.060001" />
    <path
       style="opacity:0.73706863;fill:#ffe680;fill-opacity:1;stroke:none"
       inkscape:transform-center-x="-2.4938396"
       inkscape:transform-center-y="0.47192591"
       d="m 375.71464,942.36218 -122.15099,-21.80209 52.29238,61.24271 -100.29807,-81.23391 -21.41095,39.57803 -4.52397,-49.93157 -36.56298,-13.67738 30.28737,-21.09784 -16.24076,-29.46164 20.46851,-0.12298 0.50117,-48.36349 26.41533,46.60524 23.13153,-90.23182 -1.46416,91.25797 91.77583,-129.80202 -76.62929,136.98319 209.00255,-127.46049 -100.50899,99.10601 103.35287,-0.61827 -201.07405,57.1345 185.94346,42.40609 -197.55763,-22.61281 z"
       id="path3782"
       inkscape:connector-curvature="0"
       sodipodi:nodetypes="ccccccccccccccccccccccc"
       inkscape:export-filename="/Users/nantas/projects/BOW/PSD/fxhit.png"
       inkscape:export-xdpi="43.060001"
       inkscape:export-ydpi="43.060001" />
    <path
       style="fill:#ff9955;fill-opacity:1;stroke:#ffe6d5;stroke-width:7.07927178999999995;stroke-miterlimit:4;opacity:0.61637931"
       inkscape:transform-center-x="1.6062332"
       inkscape:transform-center-y="0.5489299"
       d="m 225.49899,936.64789 -35.4834,-32.45648 -17.39438,43.36716 2.52682,-47.38613 -43.24582,31.28961 36.83022,-44.42899 -27.32029,-5.79542 27.59674,-14.87707 -22.39037,-25.39793 25.27833,8.01873 -4.15121,-59.28914 22.08226,57.43752 32.50225,-89.3573 -15.60527,94.4764 45.37808,-29.3978 -36.75446,49.36739 48.51569,35.14239 -58.91247,-15.86567 z"
       id="path3784"
       inkscape:connector-curvature="0"
       sodipodi:nodetypes="ccccccccccccccccccc"
       inkscape:export-filename="/Users/nantas/projects/BOW/PSD/fxhit.png"
       inkscape:export-xdpi="43.060001"
       inkscape:export-ydpi="43.060001" />
    <path
       sodipodi:type="star"
       style="opacity:0.73706863;fill:#ffccaa;fill-opacity:1;stroke:#fff6d5;stroke-width:5.78120708;stroke-linejoin:round;stroke-miterlimit:4;stroke-dasharray:none"
       id="path3044"
       sodipodi:sides="5"
       sodipodi:cx="552.85712"
       sodipodi:cy="300.93362"
       sodipodi:r1="27.105236"
       sodipodi:r2="13.481702"
       sodipodi:arg1="1.2490458"
       sodipodi:arg2="1.8773643"
       inkscape:flatsided="false"
       inkscape:rounded="0"
       inkscape:randomized="0"
       d="m 561.42854,326.64791 -12.64004,-12.86117 -17.7384,3.24495 8.3257,-15.99572 -8.56759,-15.86748 17.78562,2.97527 12.44333,-13.05159 2.66641,17.83454 16.258,7.80115 -16.13769,8.04708 z"
       inkscape:transform-center-x="-2.5753797"
       inkscape:transform-center-y="-0.065864482"
       transform="matrix(1.0188335,0,0,1.0358398,-9.4922839,-9.3545562)"
       inkscape:export-filename="/Users/nantas/projects/BOW/PSD/fx_star.png"
       inkscape:export-xdpi="24.120001"
       inkscape:export-ydpi="24.120001" />
  </g>
</svg>
