<?xml version="1.0" encoding="UTF-8" standalone="no"?>
<!-- Created with Inkscape (http://www.inkscape.org/) -->

<svg
   xmlns:dc="http://purl.org/dc/elements/1.1/"
   xmlns:cc="http://creativecommons.org/ns#"
   xmlns:rdf="http://www.w3.org/1999/02/22-rdf-syntax-ns#"
   xmlns:svg="http://www.w3.org/2000/svg"
   xmlns="http://www.w3.org/2000/svg"
   xmlns:sodipodi="http://sodipodi.sourceforge.net/DTD/sodipodi-0.dtd"
   xmlns:inkscape="http://www.inkscape.org/namespaces/inkscape"
   width="744.09448819"
   height="1052.3622047"
   id="svg2"
   version="1.1"
   inkscape:version="0.48.2 r9819"
   sodipodi:docname="New document 1">
  <defs
     id="defs4" />
  <sodipodi:namedview
     id="base"
     pagecolor="#ffffff"
     bordercolor="#666666"
     borderopacity="1.0"
     inkscape:pageopacity="0.0"
     inkscape:pageshadow="2"
     inkscape:zoom="0.35"
     inkscape:cx="-20.409409"
     inkscape:cy="384.46119"
     inkscape:document-units="px"
     inkscape:current-layer="layer1"
     showgrid="false"
     inkscape:window-width="1280"
     inkscape:window-height="756"
     inkscape:window-x="0"
     inkscape:window-y="0"
     inkscape:window-maximized="0" />
  <metadata
     id="metadata7">
    <rdf:RDF>
      <cc:Work
         rdf:about="">
        <dc:format>image/svg+xml</dc:format>
        <dc:type
           rdf:resource="http://purl.org/dc/dcmitype/StillImage" />
        <dc:title></dc:title>
      </cc:Work>
    </rdf:RDF>
  </metadata>
  <g
     inkscape:label="Layer 1"
     inkscape:groupmode="layer"
     id="layer1">
    <path
       style="fill:#5fd35f;stroke:#2b0000;stroke-width:10;stroke-linecap:round;stroke-linejoin:round;stroke-miterlimit:4;stroke-dasharray:none"
       d="m 407.09148,148.27565 c 0,53.55762 -43.53753,48.48733 -98.48988,48.48733 -54.95234,0 -100.51017,5.07029 -100.51017,-48.48733 0,-53.557622 44.54768,-117.177692 99.50002,-117.177692 54.95235,0 99.50003,63.62007 99.50003,117.177692 z"
       id="path2985"
       inkscape:connector-curvature="0"
       sodipodi:nodetypes="sssss"
       inkscape:export-filename="/Users/nantas/APgame/PSD/monster_slime.png"
       inkscape:export-xdpi="43.060001"
       inkscape:export-ydpi="43.060001" />
    <path
       sodipodi:type="arc"
       style="fill:#000000;stroke:none"
       id="path3756"
       sodipodi:cx="307.59146"
       sodipodi:cy="276.56503"
       sodipodi:rx="8.586297"
       sodipodi:ry="12.121831"
       d="m 316.17776,276.56503 a 8.586297,12.121831 0 1 1 -17.1726,0 8.586297,12.121831 0 1 1 17.1726,0 z"
       transform="translate(-34.345187,-172.73608)"
       inkscape:export-filename="/Users/nantas/APgame/PSD/monster_slime.png"
       inkscape:export-xdpi="43.060001"
       inkscape:export-ydpi="43.060001" />
    <path
       d="m 316.17776,276.56503 a 8.586297,12.121831 0 1 1 -17.1726,0 8.586297,12.121831 0 1 1 17.1726,0 z"
       sodipodi:ry="12.121831"
       sodipodi:rx="8.586297"
       sodipodi:cy="276.56503"
       sodipodi:cx="307.59146"
       id="path3758"
       style="fill:#000000;stroke:none"
       sodipodi:type="arc"
       transform="translate(28.284271,-172.73608)"
       inkscape:export-filename="/Users/nantas/APgame/PSD/monster_slime.png"
       inkscape:export-xdpi="43.060001"
       inkscape:export-ydpi="43.060001" />
    <path
       sodipodi:nodetypes="sssss"
       inkscape:connector-curvature="0"
       id="path3760"
       d="m 387.54921,404.85439 c 0.66099,53.55354 -35.30242,67.68023 -81.13555,67.68023 -45.83312,0 -85.47828,-14.1264 -84.84088,-67.68023 1.01015,-84.87235 38.16524,-126.26906 83.99836,-126.26906 45.83313,0 80.96791,44.42717 81.97807,126.26906 z"
       style="fill:#5fd35f;stroke:#2b0000;stroke-width:9.13264561;stroke-linecap:round;stroke-linejoin:round;stroke-miterlimit:4;stroke-dasharray:none"
       inkscape:export-filename="/Users/nantas/APgame/PSD/monster_slime.png"
       inkscape:export-xdpi="43.060001"
       inkscape:export-ydpi="43.060001" />
    <path
       style="fill:none;stroke:#000000;stroke-width:8;stroke-linecap:butt;stroke-linejoin:miter;stroke-miterlimit:4;stroke-opacity:1;stroke-dasharray:none"
       d="m 259.60921,348.28585 24.24366,19.1929 -24.24366,12.12183"
       id="path3766"
       inkscape:connector-curvature="0"
       inkscape:export-filename="/Users/nantas/APgame/PSD/monster_slime.png"
       inkscape:export-xdpi="43.060001"
       inkscape:export-ydpi="43.060001" />
    <path
       inkscape:connector-curvature="0"
       id="path3768"
       d="m 347.49248,348.28585 -24.24366,19.1929 24.24366,12.12183"
       style="fill:none;stroke:#000000;stroke-width:8;stroke-linecap:butt;stroke-linejoin:miter;stroke-miterlimit:4;stroke-opacity:1;stroke-dasharray:none"
       inkscape:export-filename="/Users/nantas/APgame/PSD/monster_slime.png"
       inkscape:export-xdpi="43.060001"
       inkscape:export-ydpi="43.060001" />
    <path
       style="fill:#d7f4d7;stroke:#afe9af;stroke-width:9.13264561000000086;stroke-linecap:round;stroke-linejoin:round;stroke-miterlimit:4;stroke-dasharray:none"
       d="m 387.54921,670.52451 c 0.66099,53.55354 -35.30242,67.68023 -81.13555,67.68023 -45.83312,0 -85.47828,-14.1264 -84.84088,-67.68023 1.01015,-84.87235 38.16524,-126.26906 83.99836,-126.26906 45.83313,0 80.96791,44.42717 81.97807,126.26906 z"
       id="path3770"
       inkscape:connector-curvature="0"
       sodipodi:nodetypes="sssss"
       inkscape:export-filename="/Users/nantas/APgame/PSD/monster_slime.png"
       inkscape:export-xdpi="43.060001"
       inkscape:export-ydpi="43.060001" />
    <path
       inkscape:connector-curvature="0"
       id="path3772"
       d="m 259.60921,613.95597 24.24366,19.1929 -24.24366,12.12183"
       style="fill:none;stroke:#000000;stroke-width:8;stroke-linecap:butt;stroke-linejoin:miter;stroke-miterlimit:4;stroke-opacity:1;stroke-dasharray:none"
       inkscape:export-filename="/Users/nantas/APgame/PSD/monster_slime.png"
       inkscape:export-xdpi="43.060001"
       inkscape:export-ydpi="43.060001" />
    <path
       style="fill:none;stroke:#000000;stroke-width:8;stroke-linecap:butt;stroke-linejoin:miter;stroke-miterlimit:4;stroke-opacity:1;stroke-dasharray:none"
       d="m 347.49248,613.95597 -24.24366,19.1929 24.24366,12.12183"
       id="path3774"
       inkscape:connector-curvature="0"
       inkscape:export-filename="/Users/nantas/APgame/PSD/monster_slime.png"
       inkscape:export-xdpi="43.060001"
       inkscape:export-ydpi="43.060001" />
    <path
       inkscape:export-ydpi="43.060001"
       inkscape:export-xdpi="43.060001"
       inkscape:export-filename="/Users/nantas/APgame/PSD/monster_slime.png"
       sodipodi:nodetypes="sssss"
       inkscape:connector-curvature="0"
       id="path3789"
       d="m 393.90873,903.0329 c 0,56.71355 -38.65326,51.34449 -87.44076,51.34449 -48.7875,0 -89.23441,5.36906 -89.23441,-51.34449 0,-56.71355 39.55009,-124.08249 88.33758,-124.08249 48.7875,0 88.33759,67.36894 88.33759,124.08249 z"
       style="fill:#5fd35f;stroke:#2b0000;stroke-width:9.69602966;stroke-linecap:round;stroke-linejoin:round;stroke-miterlimit:4;stroke-dasharray:none" />
    <path
       inkscape:export-ydpi="43.060001"
       inkscape:export-xdpi="43.060001"
       inkscape:export-filename="/Users/nantas/APgame/PSD/monster_slime.png"
       transform="matrix(0.88781469,0,0,1.0589259,1.9947742,563.10527)"
       d="m 316.17776,276.56503 a 8.586297,12.121831 0 1 1 -17.1726,0 8.586297,12.121831 0 1 1 17.1726,0 z"
       sodipodi:ry="12.121831"
       sodipodi:rx="8.586297"
       sodipodi:cy="276.56503"
       sodipodi:cx="307.59146"
       id="path3791"
       style="fill:#000000;stroke:none"
       sodipodi:type="arc" />
    <path
       inkscape:export-ydpi="43.060001"
       inkscape:export-xdpi="43.060001"
       inkscape:export-filename="/Users/nantas/APgame/PSD/monster_slime.png"
       transform="matrix(0.88781469,0,0,1.0589259,57.598127,563.10527)"
       sodipodi:type="arc"
       style="fill:#000000;stroke:none"
       id="path3793"
       sodipodi:cx="307.59146"
       sodipodi:cy="276.56503"
       sodipodi:rx="8.586297"
       sodipodi:ry="12.121831"
       d="m 316.17776,276.56503 a 8.586297,12.121831 0 1 1 -17.1726,0 8.586297,12.121831 0 1 1 17.1726,0 z" />
  </g>
</svg>
